<?xml version="1.0" standalone="no"?>
<!DOCTYPE svg PUBLIC "-//W3C//DTD SVG 20010904//EN"
 "http://www.w3.org/TR/2001/REC-SVG-20010904/DTD/svg10.dtd">
<svg version="1.0" xmlns="http://www.w3.org/2000/svg"
 width="458.000000pt" height="458.000000pt" viewBox="0 0 458.000000 458.000000"
 preserveAspectRatio="xMidYMid meet">
<metadata>
Created by potrace 1.14, written by Peter Selinger 2001-2017
</metadata>
<g transform="translate(0.000000,458.000000) scale(0.100000,-0.100000)"
fill="#000000" stroke="none">
<path d="M0 2290 l0 -2290 2290 0 2290 0 0 2290 0 2290 -2290 0 -2290 0 0
-2290z m650 1478 c25 0 88 3 140 7 76 6 102 4 133 -8 20 -9 37 -12 37 -8 0 15
104 19 308 10 392 -17 494 -46 634 -185 67 -66 120 -165 148 -276 40 -162 49
-464 19 -637 -12 -69 -38 -151 -48 -151 -4 0 -15 -17 -24 -37 -29 -67 -146
-128 -282 -149 -49 -7 -50 -7 -20 -17 59 -18 179 -68 192 -79 10 -8 -16 -28
-114 -85 -141 -82 -239 -147 -293 -193 -31 -27 -22 -24 81 24 63 30 146 64
185 74 38 11 99 33 136 50 107 49 107 49 151 -38 36 -71 38 -82 47 -210 5 -74
9 -198 9 -275 l-1 -140 -117 -113 -118 -112 -109 39 c-60 21 -171 61 -247 87
l-138 49 -4 265 c-3 249 -11 346 -34 389 -15 27 -76 52 -142 58 l-59 6 0 -160
0 -159 -27 -26 c-54 -51 -154 -107 -201 -114 -63 -9 -76 -17 -152 -89 -36 -34
-85 -75 -110 -92 -138 -93 -179 -118 -236 -144 l-64 -28 0 1240 0 1241 138 -6
c75 -4 157 -7 182 -8z m2380 -7 c30 -1 87 1 127 5 l72 6 4 -1234 c3 -1276 3
-1283 43 -1323 36 -36 124 -30 150 10 8 13 19 52 24 87 5 35 10 602 10 1261
l1 1198 394 -2 395 -2 -1 -1131 c0 -622 -4 -1152 -7 -1177 -7 -44 -16 -54
-387 -413 l-380 -367 -160 4 c-191 6 -308 32 -450 101 -174 84 -265 172 -336
322 -78 164 -72 65 -76 1437 l-4 1228 263 -5 c145 -2 288 -5 318 -5z m-1910
-2176 l0 -115 -57 22 c-110 40 -165 67 -158 78 10 16 192 130 207 130 4 0 8
-52 8 -115z m-171 -91 c47 -14 105 -32 129 -40 l42 -16 0 -349 0 -349 -395 0
-395 0 0 204 0 204 83 72 c133 117 393 300 426 300 13 0 62 -11 110 -26z m497
-168 c118 -40 217 -87 272 -130 28 -22 52 -44 52 -48 0 -8 -397 -392 -410
-396 -6 -2 -10 109 -10 297 0 243 3 301 13 301 8 0 45 -11 83 -24z"/>
<path d="M1727 3563 c-16 -15 -6 -33 18 -33 28 0 34 24 9 34 -19 7 -19 7 -27
-1z"/>
<path d="M582 3350 c6 -17 17 -34 25 -37 16 -6 63 12 63 24 0 12 -32 30 -68
37 l-31 7 11 -31z"/>
<path d="M1120 2801 c0 -453 0 -462 19 -451 26 13 177 178 213 231 l28 42 0
222 c0 241 -6 276 -57 343 -30 40 -67 58 -145 67 l-58 7 0 -461z"/>
<path d="M1728 2747 c-32 -79 -32 -77 -7 -77 38 1 55 21 62 73 6 44 5 47 -16
47 -17 0 -26 -10 -39 -43z"/>
<path d="M2667 3112 c-10 -10 -17 -28 -17 -40 0 -18 6 -22 30 -22 31 0 34 3
44 53 6 23 3 27 -17 27 -13 0 -31 -8 -40 -18z"/>
<path d="M3005 2541 c-7 -12 12 -24 25 -16 11 7 4 25 -10 25 -5 0 -11 -4 -15
-9z"/>
<path d="M3810 2336 c-26 -29 -21 -56 12 -56 23 0 78 49 78 69 0 22 -66 12
-90 -13z"/>
</g>
</svg>
